<svg width="60" height="60" viewBox="0 0 60 60" fill="none" xmlns="http://www.w3.org/2000/svg">
<g clip-path="url(#clip0_1_296)">
<path d="M60 48.0586V42.0938C60 40.8398 59.1211 39.7852 57.9375 39.5156V37.8281C57.9375 35.3672 56.3555 33.2695 54.1641 32.4961V19.1602C54.1641 16.3594 51.8906 14.0859 49.0898 14.0859H23.0977C23.2617 13.8633 23.3555 13.5937 23.3555 13.3125C23.3555 12.8437 23.0977 12.4102 22.6875 12.1758L20.4844 10.9687L19.2891 8.78906C19.0664 8.37891 18.6328 8.12109 18.1523 8.12109C17.6836 8.12109 17.25 8.37891 17.0156 8.78906L15.8203 10.9805L13.6172 12.1875C13.207 12.4102 12.9492 12.8437 12.9492 13.3242C12.9492 13.6055 13.043 13.875 13.207 14.0977H10.9102C8.10938 14.0977 5.83594 16.3711 5.83594 19.1719V22.3359C5.83594 22.8164 6.22266 23.2148 6.71484 23.2148C7.19531 23.2148 7.59375 22.8164 7.59375 22.3359V19.1719C7.59375 17.3438 9.08203 15.8555 10.9102 15.8555H15.9258L17.0156 17.8594C17.2383 18.2695 17.6719 18.5273 18.1523 18.5273C18.6211 18.5273 19.0547 18.2695 19.2891 17.8594L20.3789 15.8555H49.0898C50.918 15.8555 52.4062 17.3438 52.4062 19.1719V32.1914C52.3711 32.1914 52.3242 32.1914 52.2891 32.1914H50.25C50.25 32.1328 50.25 32.0742 50.25 32.0273V25.8867C50.25 23.918 48.6445 22.3125 46.6758 22.3125H34.9688C33 22.3125 31.3945 23.918 31.3945 25.8867V32.0273C31.3945 32.0859 31.3945 32.1445 31.3945 32.1914H28.5938C28.5938 32.1328 28.5938 32.0742 28.5938 32.0273V25.8867C28.5938 23.918 26.9883 22.3125 25.0195 22.3125H13.3125C11.3438 22.3125 9.73828 23.918 9.73828 25.8867V32.0273C9.73828 32.0859 9.73828 32.1445 9.73828 32.1914H7.71094C7.67578 32.1914 7.62891 32.1914 7.59375 32.1914V26.4375C7.59375 25.957 7.19531 25.5586 6.71484 25.5586C6.22266 25.5586 5.83594 25.957 5.83594 26.4375V32.5078C3.63281 33.2812 2.0625 35.3789 2.0625 37.8398V39.5273C0.890625 39.7852 0 40.8398 0 42.1055V48.0703C0 49.3242 0.878906 50.3789 2.0625 50.6484V54.7266H0.878906C0.398438 54.7266 0 55.125 0 55.6055C0 56.0859 0.398438 56.4844 0.878906 56.4844H59.1211C59.6016 56.4844 60 56.0859 60 55.6055C60 55.125 59.6016 54.7266 59.1211 54.7266H57.9375V50.625C59.1211 50.3672 60 49.3125 60 48.0586ZM19.5234 14.1797C19.4883 14.2031 19.4531 14.2148 19.418 14.25C19.418 14.25 19.4062 14.25 19.4062 14.2617C19.3828 14.2734 19.3711 14.2852 19.3477 14.2969C19.2773 14.3555 19.2188 14.4141 19.1602 14.4727C19.1367 14.4961 19.125 14.5078 19.1133 14.5312C19.0781 14.5781 19.043 14.6367 19.0078 14.6836L18.1523 16.2539L17.2969 14.6836C17.2852 14.6602 17.2734 14.6367 17.25 14.6016C17.2383 14.5781 17.2266 14.5664 17.2148 14.543C17.2031 14.5195 17.1914 14.5078 17.1797 14.4844C17.1562 14.4609 17.1328 14.4375 17.1094 14.4141C17.0977 14.4023 17.0859 14.3906 17.0742 14.3789C17.0391 14.3437 17.0039 14.3086 16.957 14.2734C16.9336 14.2617 16.9219 14.2383 16.8984 14.2266C16.8633 14.2031 16.8281 14.1797 16.793 14.1562L15.2227 13.3008L16.793 12.4453C17.0039 12.3281 17.1914 12.1523 17.3086 11.9297L18.1641 10.3594L19.0195 11.9297C19.1367 12.1523 19.3125 12.3281 19.5352 12.4453L21.1055 13.3008L19.5234 14.1797ZM11.5078 25.875C11.5078 24.8789 12.3281 24.0586 13.3242 24.0586H25.0312C26.0273 24.0586 26.8477 24.8672 26.8477 25.875V32.0156C26.8477 32.0742 26.8477 32.1328 26.8359 32.1797H11.5195C11.5195 32.1211 11.5078 32.0625 11.5078 32.0156V25.875ZM3.82031 37.8281C3.82031 35.9648 5.14453 34.3945 6.89062 34.0195C7.14844 33.9609 7.42969 33.9375 7.71094 33.9375H39.375C39.8555 33.9375 40.2539 33.5391 40.2539 33.0586C40.2539 32.5664 39.8555 32.1797 39.375 32.1797H33.1641C33.1641 32.1211 33.1523 32.0625 33.1523 32.0156V25.875C33.1523 24.8789 33.9727 24.0586 34.9688 24.0586H46.6758C47.6719 24.0586 48.4922 24.8672 48.4922 25.875V32.0156C48.4922 32.0742 48.4922 32.1328 48.4805 32.1797H43.4766C42.9961 32.1797 42.5977 32.5664 42.5977 33.0586C42.5977 33.5391 42.9961 33.9375 43.4766 33.9375H52.2891C52.5703 33.9375 52.8516 33.9727 53.1094 34.0195C54.8672 34.3945 56.1797 35.9648 56.1797 37.8281V39.457H3.82031V37.8281ZM1.75781 42.0938C1.75781 41.6133 2.15625 41.2148 2.63672 41.2148H57.3633C57.8438 41.2148 58.2422 41.6133 58.2422 42.0938V44.4609H1.75781V42.0938ZM7.51172 54.7031H3.82031V50.6953H7.52344V54.7031H7.51172ZM56.1797 54.7031H52.4766V50.6953H56.1797V54.7031ZM57.3633 48.9375H20.1562C19.6758 48.9375 19.2773 49.3359 19.2773 49.8164C19.2773 50.2969 19.6758 50.6953 20.1562 50.6953H50.7305V54.7031H9.26953V50.6953H16.0547C16.5352 50.6953 16.9336 50.2969 16.9336 49.8164C16.9336 49.3359 16.5352 48.9375 16.0547 48.9375H2.63672C2.15625 48.9375 1.75781 48.5391 1.75781 48.0586V46.2305H58.2422V48.0586C58.2422 48.5391 57.8438 48.9375 57.3633 48.9375Z" fill="#ED8C0C"/>
<path d="M28.5352 6.77344C28.5352 7.25391 28.1367 7.65234 27.6562 7.65234H26.6953V8.61328C26.6953 9.09375 26.2969 9.49219 25.8164 9.49219C25.3359 9.49219 24.9375 9.09375 24.9375 8.61328V7.65234H23.9766C23.4844 7.65234 23.0977 7.25391 23.0977 6.77344C23.0977 6.28125 23.4844 5.89453 23.9766 5.89453H24.9375V4.92188C24.9375 4.44141 25.3359 4.04297 25.8164 4.04297C26.2969 4.04297 26.6953 4.44141 26.6953 4.92188V5.89453H27.6562C28.1367 5.89453 28.5352 6.29297 28.5352 6.77344Z" fill="#ED8C0C"/>
<path d="M35.4492 10.7578C35.4492 11.2383 35.0508 11.6367 34.5703 11.6367H34.1953V12.0117C34.1953 12.4922 33.7969 12.8906 33.3164 12.8906C32.8359 12.8906 32.4375 12.4922 32.4375 12.0117V11.6367H32.0625C31.5703 11.6367 31.1836 11.2383 31.1836 10.7578C31.1836 10.2656 31.5703 9.87891 32.0625 9.87891H32.4375V9.49219C32.4375 9.01172 32.8359 8.61328 33.3164 8.61328C33.7969 8.61328 34.1953 9.01172 34.1953 9.49219V9.87891H34.5703C35.0508 9.87891 35.4492 10.2773 35.4492 10.7578Z" fill="#ED8C0C"/>
<path d="M42.082 12.3398C41.6133 12.3398 41.1797 12.082 40.9453 11.6719L40.0312 9.99609L38.3555 9.08203C37.9453 8.85938 37.6875 8.42578 37.6875 7.94531C37.6875 7.47656 37.9453 7.04297 38.3555 6.80859L40.0312 5.89453L40.9453 4.21875C41.168 3.80859 41.6016 3.55078 42.082 3.55078C42.5625 3.55078 42.9844 3.80859 43.2187 4.21875L44.1328 5.89453L45.8086 6.80859C46.2187 7.03125 46.4766 7.46484 46.4766 7.94531C46.4766 8.41406 46.2187 8.84766 45.8086 9.08203L44.1328 9.99609L43.2187 11.6719C42.9844 12.082 42.5508 12.3398 42.082 12.3398ZM39.9375 7.94531L40.9922 8.51953C41.2148 8.63672 41.3906 8.8125 41.5078 9.03516L42.082 10.0898L42.6562 9.03516C42.7734 8.8125 42.9492 8.63672 43.1719 8.51953L44.2266 7.94531L43.1719 7.37109C42.9492 7.25391 42.7734 7.07812 42.6562 6.85547L42.082 5.80078L41.5078 6.85547C41.3906 7.07812 41.2148 7.25391 40.9922 7.37109L39.9375 7.94531Z" fill="#ED8C0C"/>
</g>
<defs>
<clipPath id="clip0_1_296">
<rect width="60" height="60" fill="white"/>
</clipPath>
</defs>
</svg>
