<svg width="60" height="60" viewBox="0 0 60 60" fill="none" xmlns="http://www.w3.org/2000/svg">
<path d="M54.3563 50.3062C53.8687 45.0281 41.5875 42.1875 30 42.1875C28.125 42.1875 26.2313 42.2625 24.375 42.4031V35.2031C24.3751 33.4948 24.0174 31.8054 23.325 30.2437L17.9437 18.1312L19.8094 18.8812C20.3871 19.1089 20.9274 19.4217 21.4125 19.8094L25.7906 23.2406C25.9529 23.3702 26.1549 23.4397 26.3625 23.4375C26.4223 23.4364 26.4819 23.4301 26.5406 23.4187C26.6736 23.3957 26.7998 23.3433 26.91 23.2655C27.0203 23.1877 27.1119 23.0863 27.1781 22.9687C27.5045 22.303 27.6455 21.5615 27.5861 20.8224C27.5267 20.0833 27.2692 19.3739 26.8406 18.7687C25.8943 17.2624 24.5815 16.0206 23.025 15.1594C21.7413 14.4006 20.3145 13.9154 18.8344 13.7344C19.4117 12.3542 19.702 10.871 19.6875 9.375C19.6875 5.16563 17.625 1.875 15 1.875C14.8657 1.87602 14.733 1.90487 14.6104 1.95973C14.4877 2.01459 14.3778 2.09427 14.2875 2.19375C14.2001 2.29614 14.1357 2.41604 14.0985 2.5454C14.0613 2.67476 14.0522 2.81059 14.0719 2.94375L14.8594 8.45625C14.9531 9.06831 14.9531 9.69107 14.8594 10.3031L14.7375 11.1562C13.875 10.1249 12.8333 9.25786 11.6625 8.59687C9.71033 7.34253 7.35451 6.87673 5.07187 7.29375C4.60806 7.3984 4.16995 7.59503 3.78348 7.87201C3.39701 8.14898 3.07002 8.50066 2.82187 8.90625C2.75672 9.02351 2.71712 9.15323 2.70568 9.28688C2.69424 9.42054 2.71122 9.5551 2.75549 9.68172C2.79976 9.80835 2.87034 9.92417 2.96257 10.0216C3.0548 10.119 3.1666 10.1958 3.29062 10.2469L8.44688 12.3187C9.02355 12.5485 9.56361 12.8612 10.05 13.2469L10.7344 13.7812C9.40776 14.0078 8.13371 14.4748 6.975 15.1594C5.41848 16.0206 4.10571 17.2624 3.15937 18.7687C2.73082 19.3739 2.4733 20.0833 2.41391 20.8224C2.35452 21.5615 2.49545 22.303 2.82187 22.9687C2.88813 23.0863 2.97971 23.1877 3.08996 23.2655C3.20022 23.3433 3.3264 23.3957 3.45938 23.4187C3.5181 23.4301 3.5777 23.4364 3.6375 23.4375C3.84512 23.4397 4.04713 23.3702 4.20937 23.2406L8.5875 19.8094C9.07256 19.4217 9.61292 19.1089 10.1906 18.8812L13.3031 17.625L14.8687 31.6687C14.9531 32.4289 14.9531 33.1961 14.8687 33.9562L13.725 44.2219C9.84375 45.375 6.95625 46.9969 5.98125 49.0875C4.64511 48.7147 3.26194 48.5379 1.875 48.5625V50.4375C3.69142 50.392 5.49496 50.7539 7.15313 51.4969C9.03179 52.3286 11.071 52.7352 13.125 52.6875C15.1788 52.733 17.2175 52.3265 19.0969 51.4969C20.755 50.7539 22.5586 50.392 24.375 50.4375C26.1883 50.3928 27.9886 50.7548 29.6438 51.4969C31.5228 52.3276 33.5617 52.7341 35.6156 52.6875C37.6696 52.7352 39.7088 52.3286 41.5875 51.4969C43.2494 50.7552 45.0557 50.3933 46.875 50.4375C48.6913 50.3931 50.4946 50.755 52.1531 51.4969C54.0321 52.3276 56.0711 52.7341 58.125 52.6875V50.8125C56.8501 50.84 55.5787 50.6692 54.3563 50.3062ZM9.49688 17.1375C8.75401 17.4356 8.0566 17.8364 7.425 18.3281L4.34063 20.7469C4.44199 20.3854 4.59012 20.0387 4.78125 19.7156C5.56444 18.4921 6.64074 17.4834 7.9125 16.7812C9.15151 16.0289 10.5611 15.6032 12.0094 15.5437H12.0375C12.4042 15.5394 12.7699 15.5835 13.125 15.675L9.49688 17.1375ZM14.1 14.0344L11.2125 11.7656C10.5783 11.2778 9.88144 10.8773 9.14062 10.575L5.50312 9.1125C5.51892 9.1103 5.53457 9.10717 5.55 9.10312C7.35476 8.82551 9.19838 9.2263 10.725 10.2281C12.3344 11.0363 13.587 12.4125 14.2406 14.0906L14.1 14.0344ZM22.5 35.2031V42.5719C20.2034 42.8059 17.9238 43.1848 15.675 43.7062L15.9 41.6812L22.4906 35.0812C22.4906 35.1187 22.5 35.1656 22.5 35.2031ZM21.6187 31.0031C21.8597 31.5634 22.0511 32.1438 22.1906 32.7375L16.2281 38.7L16.725 34.1625C16.7625 33.8719 16.7625 33.5812 16.7812 33.3L20.8312 29.2406L21.6187 31.0031ZM18.525 24.0562L20.0156 27.4125L16.65 30.7687L16.1719 26.4094L18.525 24.0562ZM22.0875 16.7812C23.3593 17.4834 24.4356 18.4921 25.2188 19.7156C25.4099 20.0387 25.558 20.3854 25.6594 20.7469L22.575 18.3281C21.9434 17.8364 21.246 17.4356 20.5031 17.1375L16.875 15.675C17.2385 15.5773 17.6143 15.5331 17.9906 15.5437C19.4389 15.6032 20.8485 16.0289 22.0875 16.7812ZM17.8125 9.375C17.8562 10.9242 17.4631 12.4544 16.6781 13.7906C16.5281 13.8281 16.3781 13.8656 16.2375 13.9031L16.7156 10.575C16.8281 9.78209 16.8281 8.97728 16.7156 8.18437L16.1625 4.30312C17.3357 5.7234 17.9254 7.53632 17.8125 9.375ZM15.1312 16.9969L15.4406 17.1281L17.7094 22.2188L15.9 24.0187L15.1312 17.025C15.1219 17.0156 15.1312 17.0062 15.1312 16.9969ZM46.875 48.5625C44.8181 48.5161 42.7761 48.9226 40.8937 49.7531C39.2356 50.4961 37.432 50.858 35.6156 50.8125C33.8023 50.8571 32.002 50.4952 30.3469 49.7531C28.4675 48.9235 26.4288 48.517 24.375 48.5625C22.3181 48.5161 20.2761 48.9226 18.3938 49.7531C16.7386 50.4952 14.9383 50.8571 13.125 50.8125C11.3086 50.858 9.50504 50.4961 7.84687 49.7531C7.81875 49.7437 7.8 49.7344 7.77187 49.725C9.34687 46.875 18.0469 44.0625 30 44.0625C41.6063 44.0625 50.1375 46.7156 52.0781 49.4531C50.4177 48.8224 48.6507 48.52 46.875 48.5625Z" fill="#ED8C0C"/>
<path d="M52.5 14.0625C52.5 12.7646 52.1151 11.4958 51.394 10.4166C50.6729 9.33738 49.648 8.49624 48.4489 7.99954C47.2497 7.50284 45.9302 7.37288 44.6572 7.6261C43.3842 7.87932 42.2149 8.50433 41.2971 9.42211C40.3793 10.3399 39.7543 11.5092 39.5011 12.7822C39.2479 14.0552 39.3778 15.3747 39.8745 16.5739C40.3712 17.773 41.2124 18.7979 42.2916 19.519C43.3708 20.2401 44.6396 20.625 45.9375 20.625C47.6774 20.623 49.3454 19.931 50.5757 18.7007C51.806 17.4704 52.498 15.8024 52.5 14.0625ZM45.9375 18.75C45.0104 18.75 44.1041 18.4751 43.3333 17.96C42.5624 17.4449 41.9616 16.7129 41.6068 15.8563C41.252 14.9998 41.1592 14.0573 41.3401 13.148C41.5209 12.2387 41.9674 11.4035 42.6229 10.7479C43.2785 10.0924 44.1137 9.64594 45.023 9.46507C45.9323 9.2842 46.8748 9.37703 47.7313 9.73182C48.5879 10.0866 49.3199 10.6874 49.835 11.4583C50.3501 12.2291 50.625 13.1354 50.625 14.0625C50.6235 15.3052 50.1292 16.4967 49.2504 17.3754C48.3717 18.2542 47.1802 18.7485 45.9375 18.75Z" fill="#ED8C0C"/>
<path d="M45 1.875H46.875V5.625H45V1.875Z" fill="#ED8C0C"/>
<path d="M39.032 3.97827L40.6557 3.04077L42.5307 6.28827L40.907 7.22577L39.032 3.97827Z" fill="#ED8C0C"/>
<path d="M34.9131 8.78101L35.8506 7.15726L39.0981 9.03226L38.1606 10.656L34.9131 8.78101Z" fill="#ED8C0C"/>
<path d="M33.75 13.125H37.5V15H33.75V13.125Z" fill="#ED8C0C"/>
<path d="M34.9128 19.3396L38.1603 17.4646L39.0978 19.0883L35.8503 20.9633L34.9128 19.3396Z" fill="#ED8C0C"/>
<path d="M39.0332 24.1528L40.9082 20.9053L42.532 21.8428L40.657 25.0903L39.0332 24.1528Z" fill="#ED8C0C"/>
<path d="M45 22.5H46.875V26.25H45V22.5Z" fill="#ED8C0C"/>
<path d="M49.3435 21.8396L50.9673 20.9021L52.8423 24.1496L51.2185 25.0871L49.3435 21.8396Z" fill="#ED8C0C"/>
<path d="M52.7737 19.0935L53.7112 17.4698L56.9587 19.3448L56.0212 20.9685L52.7737 19.0935Z" fill="#ED8C0C"/>
<path d="M54.375 13.125H58.125V15H54.375V13.125Z" fill="#ED8C0C"/>
<path d="M52.7751 9.03369L56.0226 7.15869L56.9601 8.78244L53.7126 10.6574L52.7751 9.03369Z" fill="#ED8C0C"/>
<path d="M49.3477 6.29004L51.2227 3.04254L52.8464 3.98004L50.9714 7.22754L49.3477 6.29004Z" fill="#ED8C0C"/>
<path d="M19.3734 54.4875C18.0346 54.4582 16.7108 54.7743 15.5297 55.4053C14.6016 55.9141 13.5549 56.1668 12.4969 56.1375C11.4405 56.1667 10.3954 55.9143 9.46875 55.4063C8.28792 54.7743 6.96397 54.4579 5.625 54.4875V56.3625C6.68209 56.3333 7.7279 56.586 8.655 57.0947C9.83604 57.726 11.1599 58.0421 12.4987 58.0125C13.8376 58.042 15.1614 57.7259 16.3425 57.0947C17.2706 56.586 18.3173 56.3333 19.3753 56.3625C20.4326 56.3334 21.4786 56.5858 22.4062 57.0938C23.5873 57.7249 24.9112 58.041 26.25 58.0116V56.1366C25.192 56.1658 24.1453 55.9131 23.2172 55.4044C22.036 54.7735 20.7122 54.4578 19.3734 54.4875Z" fill="#ED8C0C"/>
<path d="M47.4984 56.1375C46.4405 56.1669 45.3938 55.9146 44.4656 55.4062C43.2743 54.8026 41.9575 54.488 40.6219 54.488C39.2863 54.488 37.9695 54.8026 36.7781 55.4062C35.8515 55.9143 34.8064 56.1666 33.75 56.1375V58.0125C35.0889 58.0424 36.4128 57.7263 37.5937 57.0947C38.5318 56.6135 39.5709 56.3625 40.6252 56.3625C41.6794 56.3625 42.7185 56.6135 43.6566 57.0947C44.848 57.698 46.1648 58.0125 47.5003 58.0125C48.8358 58.0125 50.1526 57.698 51.3441 57.0947C52.2716 56.5863 53.3177 56.3336 54.375 56.3625V54.4875C53.0362 54.458 51.7123 54.7741 50.5313 55.4053C49.6031 55.914 48.5564 56.1667 47.4984 56.1375Z" fill="#ED8C0C"/>
</svg>
