<svg width="32" height="28" viewBox="0 0 32 28" fill="none" xmlns="http://www.w3.org/2000/svg">
<path d="M13.013 5.91955C13.7732 5.60074 14.092 4.69336 13.7487 3.95764L12.547 1.43167C12.2037 0.720726 11.3699 0.401669 10.6341 0.720726C8.54961 1.60359 6.75936 2.75621 5.33697 4.15408C3.59578 5.79693 2.41863 7.68528 1.78101 9.76981C1.14338 11.8791 0.800049 14.7482 0.800049 18.4022V25.9311C0.800049 26.7404 1.46219 27.4025 2.27148 27.4025H11.9094C12.7187 27.4025 13.3808 26.7404 13.3808 25.9311V16.2932C13.3808 15.4836 12.7187 14.8217 11.9094 14.8217H7.29889C7.34794 12.3446 7.93651 10.3584 9.01556 8.86218C9.89843 7.661 11.2227 6.68004 13.013 5.91955Z" fill="#070503" fill-opacity="0.25"/>
<path d="M30.3261 5.9186C31.0863 5.59979 31.4049 4.6924 31.0618 3.95669L29.8601 1.45549C29.5168 0.744298 28.683 0.425487 27.9473 0.744298C25.8873 1.62716 24.1213 2.77978 22.6746 4.15312C20.9332 5.82075 19.7318 7.70909 19.0939 9.79363C18.4563 11.8534 18.1377 14.7229 18.1377 18.4015V25.9304C18.1377 26.7397 18.7998 27.4018 19.6091 27.4018H29.247C30.0563 27.4018 30.7185 26.7397 30.7185 25.9304V16.2925C30.7185 15.4829 30.0563 14.821 29.247 14.821H24.612C24.6611 12.3439 25.2499 10.3577 26.3287 8.86147C27.2116 7.66004 28.5358 6.67909 30.3261 5.9186Z" fill="#070503" fill-opacity="0.25"/>
</svg>
