<svg width="40" height="40" viewBox="0 0 40 40" fill="none" xmlns="http://www.w3.org/2000/svg">
<circle opacity="0.5" cx="20" cy="20" r="19.5" stroke="white"/>
<path fill-rule="evenodd" clip-rule="evenodd" d="M20.0008 16.7992C18.2335 16.7992 16.8012 18.2322 16.8012 19.9994C16.8012 21.7667 18.2335 23.1997 20.0008 23.1997C21.7681 23.1997 23.2012 21.7667 23.2012 19.9994C23.2012 18.2322 21.7681 16.7992 20.0008 16.7992ZM20.0008 24.9289C17.2781 24.9289 15.0711 22.722 15.0711 19.9994C15.0711 17.2769 17.2781 15.0699 20.0008 15.0699C22.7234 15.0699 24.9305 17.2769 24.9305 19.9994C24.9305 22.722 22.7234 24.9289 20.0008 24.9289ZM24.1675 15.5146C24.041 15.3251 23.9735 15.1023 23.9736 14.8745C23.9738 14.5691 24.0953 14.2763 24.3113 14.0603C24.5273 13.8444 24.8202 13.7231 25.1256 13.7229H25.1261C25.3539 13.723 25.5766 13.7907 25.766 13.9173C25.9554 14.044 26.103 14.224 26.1901 14.4345C26.2773 14.645 26.3 14.8767 26.2554 15.1001C26.2109 15.3236 26.1011 15.5288 25.9399 15.6898C25.7787 15.8509 25.5734 15.9605 25.3499 16.0049C25.1264 16.0492 24.8948 16.0263 24.6843 15.9391C24.4738 15.8518 24.294 15.7041 24.1675 15.5146ZM14.3394 27.4833C14.6775 27.6151 15.1862 27.771 16.1222 27.8136C17.1339 27.8601 17.437 27.8694 20.0008 27.8694C22.5645 27.8694 22.8685 27.8601 23.8805 27.8136C24.8165 27.771 25.3254 27.6151 25.6633 27.4833C26.1115 27.3089 26.4318 27.1007 26.7676 26.7653C27.1034 26.4298 27.3112 26.11 27.4857 25.6618C27.6166 25.3237 27.7733 24.815 27.8159 23.879C27.8625 22.8663 27.8718 22.5632 27.8718 19.9995C27.8718 17.4358 27.8625 17.1327 27.8159 16.1199C27.7734 15.184 27.6175 14.6751 27.4857 14.3372C27.3112 13.889 27.1038 13.5687 26.7676 13.2329C26.4313 12.8972 26.1115 12.6886 25.6633 12.5149C25.3244 12.3843 24.8165 12.2273 23.8805 12.1846C22.8677 12.1389 22.5634 12.1288 20.0008 12.1288C17.4382 12.1288 17.1342 12.1381 16.1222 12.1846C15.1862 12.2272 14.6773 12.3831 14.3394 12.5149C13.8904 12.6886 13.5709 12.8967 13.2351 13.2329C12.8993 13.5692 12.6915 13.889 12.517 14.3372C12.3864 14.6761 12.2294 15.184 12.1868 16.1199C12.141 17.1327 12.1309 17.4358 12.1309 19.9995C12.1309 22.5632 12.1402 22.8671 12.1868 23.879C12.2293 24.815 12.3852 25.3239 12.517 25.6618C12.6907 26.11 12.8989 26.4295 13.2351 26.7653C13.5714 27.101 13.8912 27.3089 14.3394 27.4833ZM13.7124 10.9035C14.3223 10.6661 15.0207 10.5041 16.0427 10.4576C17.0669 10.4102 17.3944 10.3994 20.0015 10.3994C22.6087 10.3994 22.936 10.411 23.9596 10.4576C24.9808 10.5033 25.6788 10.6661 26.2899 10.9035C26.9203 11.1485 27.4563 11.4765 27.9898 12.0108C28.5232 12.5451 28.8513 13.0801 29.0971 13.7113C29.3344 14.3212 29.4965 15.0195 29.543 16.0415C29.5896 17.0651 29.6004 17.3924 29.6004 19.9994C29.6004 22.6065 29.5896 22.9329 29.543 23.9573C29.4972 24.9793 29.3344 25.6772 29.0971 26.2875C28.8513 26.9187 28.5241 27.4546 27.9898 27.9881C27.4554 28.5215 26.9203 28.8496 26.2891 29.0954C25.6788 29.3327 24.9809 29.4947 23.9588 29.5413C22.9352 29.5886 22.6079 29.5994 20.0008 29.5994C17.3936 29.5994 17.0669 29.5878 16.0427 29.5413C15.0207 29.4947 14.3235 29.3327 13.7124 29.0954C13.0808 28.8496 12.546 28.5213 12.0118 27.9881C11.4776 27.4548 11.1495 26.9187 10.9044 26.2875C10.6671 25.6772 10.5051 24.9794 10.4585 23.9573C10.4112 22.9337 10.4004 22.6065 10.4004 19.9994C10.4004 17.3924 10.4112 17.0651 10.4585 16.0415C10.5051 15.0195 10.6671 14.3216 10.9044 13.7113C11.1495 13.0797 11.4775 12.5442 12.0118 12.0108C12.5461 11.4773 13.0808 11.1485 13.7124 10.9035Z" fill="white"/>
</svg>
