<svg width="40" height="40" viewBox="0 0 40 40" fill="none" xmlns="http://www.w3.org/2000/svg">
<circle opacity="0.5" cx="20" cy="20" r="19.5" stroke="white"/>
<path d="M10.4004 12.9525C10.4004 12.3348 10.6166 11.8251 11.049 11.4236C11.4815 11.0221 12.0436 10.8213 12.7355 10.8213C13.4151 10.8213 13.9649 11.019 14.3849 11.4143C14.8174 11.8221 15.0336 12.3533 15.0336 13.0081C15.0336 13.6012 14.8236 14.0954 14.4035 14.4908C13.9711 14.8985 13.4027 15.1023 12.6985 15.1023H12.6799C12.0004 15.1023 11.4506 14.8985 11.0305 14.4908C10.6104 14.083 10.4004 13.5703 10.4004 12.9525ZM10.6413 29.1687V16.7888H14.7556V29.1687H10.6413ZM17.0351 29.1687H21.1494V22.256C21.1494 21.8235 21.1988 21.4899 21.2977 21.2552C21.4707 20.8351 21.7332 20.4799 22.0853 20.1896C22.4375 19.8992 22.8791 19.754 23.4104 19.754C24.7942 19.754 25.4861 20.6869 25.4861 22.5525V29.1687H29.6004V22.0706C29.6004 20.2421 29.168 18.8552 28.3031 17.91C27.4382 16.9649 26.2954 16.4923 24.8745 16.4923C23.2807 16.4923 22.039 17.178 21.1494 18.5494V18.5865H21.1309L21.1494 18.5494V16.7888H17.0351C17.0598 17.1842 17.0722 18.4135 17.0722 20.4768C17.0722 22.5401 17.0598 25.4374 17.0351 29.1687Z" fill="white"/>
</svg>
