<svg width="60" height="46" viewBox="0 0 60 46" fill="none" xmlns="http://www.w3.org/2000/svg">
<path d="M26.7933 31.4738H8.21053C7.54111 31.4738 7 30.9315 7 30.2633C7 29.5951 7.54111 29.0527 8.21053 29.0527H26.7933C27.4627 29.0527 28.0038 29.5951 28.0038 30.2633C28.0038 30.9315 27.4615 31.4738 26.7933 31.4738Z" fill="#ED8C0C"/>
<path d="M26.7933 16.9474H8.21053C7.54111 16.9474 7 16.4051 7 15.7369C7 15.0687 7.54111 14.5264 8.21053 14.5264H26.7933C27.4627 14.5264 28.0038 15.0687 28.0038 15.7369C28.0038 16.4051 27.4615 16.9474 26.7933 16.9474Z" fill="#ED8C0C"/>
<path d="M25.1579 24.2106H0.947343C0.277922 24.2106 -0.263184 23.6683 -0.263184 23.0001C-0.263184 22.3319 0.277922 21.7896 0.947343 21.7896H25.1579C25.8273 21.7896 26.3684 22.3319 26.3684 23.0001C26.3684 23.6683 25.8273 24.2106 25.1579 24.2106Z" fill="#ED8C0C"/>
<path d="M37.2631 27.7236C34.8578 27.7236 32.421 26.1015 32.421 23.0001C32.421 19.8987 34.8578 18.2766 37.2631 18.2766C39.6684 18.2766 42.1052 19.8987 42.1052 23.0001C42.1052 26.1015 39.6684 27.7236 37.2631 27.7236ZM37.2631 20.6977C36.1458 20.6977 34.8421 21.3005 34.8421 23.0001C34.8421 24.6997 36.1458 25.3025 37.2631 25.3025C38.3804 25.3025 39.6842 24.6997 39.6842 23.0001C39.6842 21.3005 38.3804 20.6977 37.2631 20.6977Z" fill="#ED8C0C"/>
<path d="M39.8307 21.6431C39.5208 21.6431 39.2109 21.5245 38.9749 21.2884C38.5015 20.8151 38.5015 20.05 38.9749 19.5767L45.8228 12.7288C46.2961 12.2555 47.0612 12.2555 47.5345 12.7288C48.0078 13.2021 48.0078 13.9671 47.5345 14.4405L40.6865 21.2884C40.4505 21.5245 40.1406 21.6431 39.8307 21.6431Z" fill="#ED8C0C"/>
<path d="M32.9838 28.4909C32.6739 28.4909 32.364 28.3723 32.1279 28.1363C31.6546 27.6641 31.6546 26.8979 32.1279 26.4246L33.8396 24.7117C34.3129 24.2384 35.078 24.2384 35.5513 24.7117C36.0246 25.1838 36.0246 25.95 35.5513 26.4234L33.8396 28.1363C33.6036 28.3723 33.2937 28.4909 32.9838 28.4909Z" fill="#ED8C0C"/>
<path d="M37.2631 45.9999C36.5937 45.9999 36.0526 45.4576 36.0526 44.7894V41.1578C36.0526 40.4896 36.5937 39.9473 37.2631 39.9473C37.9326 39.9473 38.4737 40.4896 38.4737 41.1578V44.7894C38.4737 45.4576 37.9326 45.9999 37.2631 45.9999Z" fill="#ED8C0C"/>
<path d="M52.6707 39.618C52.3608 39.618 52.0509 39.4994 51.8148 39.2633L49.2473 36.6946C48.774 36.2213 48.774 35.455 49.2473 34.9829C49.7206 34.5096 50.4857 34.5096 50.959 34.9829L53.5265 37.5517C53.9998 38.025 53.9998 38.7912 53.5265 39.2633C53.2893 39.4994 52.9794 39.618 52.6707 39.618Z" fill="#ED8C0C"/>
<path d="M50.1019 11.3717C49.792 11.3717 49.4822 11.2531 49.2461 11.017C48.7728 10.5449 48.7728 9.77863 49.2461 9.30532L51.8136 6.73658C52.2869 6.26326 53.052 6.26326 53.5253 6.73658C53.9986 7.20868 53.9986 7.97495 53.5253 8.44826L50.9578 11.017C50.7217 11.2531 50.4118 11.3717 50.1019 11.3717Z" fill="#ED8C0C"/>
<path d="M37.2631 6.05263C36.5937 6.05263 36.0526 5.51032 36.0526 4.8421V1.21053C36.0526 0.542316 36.5937 0 37.2631 0C37.9326 0 38.4737 0.542316 38.4737 1.21053V4.8421C38.4737 5.51032 37.9326 6.05263 37.2631 6.05263Z" fill="#ED8C0C"/>
<path d="M59.0526 24.2106H55.421C54.7516 24.2106 54.2104 23.6683 54.2104 23.0001C54.2104 22.3319 54.7516 21.7896 55.421 21.7896H59.0526C59.722 21.7896 60.2631 22.3319 60.2631 23.0001C60.2631 23.6683 59.722 24.2106 59.0526 24.2106Z" fill="#ED8C0C"/>
<path d="M28.5341 9.68424H15.4737C14.8043 9.68424 14.2632 9.14192 14.2632 8.47371C14.2632 7.8055 14.8043 7.26318 15.4737 7.26318H28.5341C29.2035 7.26318 29.7446 7.8055 29.7446 8.47371C29.7446 9.14192 29.2035 9.68424 28.5341 9.68424Z" fill="#ED8C0C"/>
<path d="M28.5341 38.7367H15.4737C14.8043 38.7367 14.2632 38.1944 14.2632 37.5262C14.2632 36.858 14.8043 36.3157 15.4737 36.3157H28.5341C29.2035 36.3157 29.7446 36.858 29.7446 37.5262C29.7446 38.1944 29.2035 38.7367 28.5341 38.7367Z" fill="#ED8C0C"/>
<path d="M37.1882 45.977C33.6402 45.977 30.0558 45.1599 26.7269 43.4446C26.1325 43.1383 25.8989 42.4084 26.2051 41.814C26.5114 41.2197 27.2425 40.986 27.8357 41.2923C37.3311 46.1852 49.1591 42.9071 54.7639 33.8294C60.3843 24.725 58.0323 12.6694 49.4097 6.38314C43.1646 1.83156 34.6958 1.17303 27.8357 4.70656C27.2425 5.01282 26.5114 4.7804 26.2051 4.18482C25.8989 3.59046 26.1313 2.86051 26.7269 2.55424C34.3931 -1.39691 43.8546 -0.662124 50.8357 4.42572C60.4739 11.4516 63.1044 24.926 56.823 35.1005C52.5244 42.0658 44.9477 45.977 37.1882 45.977Z" fill="#ED8C0C"/>
</svg>
