<svg width="233" height="55" viewBox="0 0 233 55" fill="none" xmlns="http://www.w3.org/2000/svg">
<rect width="233" height="55" fill="#41546B"/>
<path fill-rule="evenodd" clip-rule="evenodd" d="M37.9448 15.0099C37.666 14.9699 37.3859 15.0524 37.163 15.2298C36.934 15.4096 36.7908 15.6695 36.7597 15.9605C36.6937 16.5489 37.1182 17.081 37.7058 17.1472C41.7579 17.5994 44.9074 20.756 45.363 24.8207C45.424 25.3653 45.8809 25.7763 46.4262 25.7763C46.4672 25.7763 46.5071 25.7738 46.5482 25.7688C46.8332 25.7375 47.0872 25.5964 47.2664 25.3715C47.4445 25.1467 47.5254 24.8669 47.493 24.5808C46.9254 19.5093 43.0003 15.5733 37.9448 15.0099ZM38.0226 19.3624C37.4276 19.2525 36.8811 19.6322 36.7678 20.2131C36.6545 20.7939 37.0354 21.3611 37.6143 21.4747C39.3571 21.8145 40.7028 23.1636 41.0439 24.9124V24.9136C41.141 25.417 41.5842 25.783 42.0946 25.783C42.1631 25.783 42.2315 25.7768 42.3013 25.7643C42.8801 25.6481 43.2611 25.0822 43.1478 24.5001C42.6386 21.8882 40.6281 19.8708 38.0226 19.3624ZM40.0001 31.3632C40.5644 31.0378 41.2018 30.6703 42.0058 30.8413C42.7341 30.9949 45.2164 33.0098 45.8961 33.7081C46.3418 34.1653 46.5895 34.6374 46.6281 35.1096C46.6953 36.9621 44.1782 39.0769 43.72 39.3405C43.1113 39.7789 42.403 40 41.6075 40C40.7946 40 39.8883 39.7689 38.8999 39.308C33.5369 37.0695 25.3444 29.0388 23.1783 23.7174C22.2795 21.7363 22.2733 20.1024 23.1634 18.8745C23.5182 18.2987 25.5411 15.8916 27.3524 15.9678C27.8342 16.009 28.3022 16.2563 28.7616 16.706C29.4562 17.3868 31.4207 19.8763 31.5725 20.6071C31.7406 21.419 31.3721 22.0648 31.0447 22.6319C30.9749 22.7538 30.8808 22.8985 30.7777 23.057C30.3865 23.6585 29.8658 24.4592 30.05 24.9703C31.3709 28.2131 34.4221 31.0424 37.6662 32.3715C38.1679 32.5538 38.9681 32.0294 39.5677 31.6365C39.7239 31.5341 39.8665 31.4406 39.9867 31.3709L40.0001 31.3632Z" fill="white"/>
<path d="M66.288 27.768V26.256C66.8 26.256 67.256 26.192 67.656 26.064C68.056 25.92 68.392 25.728 68.664 25.488C68.952 25.248 69.168 24.968 69.312 24.648C69.472 24.312 69.552 23.968 69.552 23.616C69.552 23.168 69.464 22.776 69.288 22.44C69.112 22.088 68.856 21.816 68.52 21.624C68.184 21.432 67.768 21.336 67.272 21.336C66.536 21.336 65.92 21.56 65.424 22.008C64.944 22.44 64.704 22.992 64.704 23.664H62.04C62.04 22.736 62.256 21.92 62.688 21.216C63.136 20.512 63.752 19.96 64.536 19.56C65.32 19.144 66.224 18.936 67.248 18.936C68.336 18.936 69.264 19.144 70.032 19.56C70.8 19.976 71.384 20.528 71.784 21.216C72.2 21.888 72.408 22.64 72.408 23.472C72.408 24.32 72.144 25.072 71.616 25.728C71.088 26.384 70.36 26.888 69.432 27.24C68.52 27.592 67.472 27.768 66.288 27.768ZM67.128 36.288C66.232 36.288 65.424 36.16 64.704 35.904C63.984 35.632 63.376 35.264 62.88 34.8C62.384 34.32 62 33.776 61.728 33.168C61.456 32.544 61.32 31.888 61.32 31.2H64.152C64.152 31.744 64.28 32.216 64.536 32.616C64.808 33 65.176 33.304 65.64 33.528C66.104 33.736 66.616 33.84 67.176 33.84C67.752 33.84 68.248 33.736 68.664 33.528C69.096 33.32 69.432 33.024 69.672 32.64C69.912 32.24 70.032 31.76 70.032 31.2C70.032 30.752 69.944 30.352 69.768 30C69.592 29.648 69.336 29.352 69 29.112C68.68 28.872 68.288 28.688 67.824 28.56C67.36 28.432 66.848 28.368 66.288 28.368V26.76C67.216 26.76 68.08 26.856 68.88 27.048C69.68 27.224 70.376 27.504 70.968 27.888C71.576 28.256 72.048 28.744 72.384 29.352C72.72 29.944 72.888 30.664 72.888 31.512C72.888 32.456 72.648 33.288 72.168 34.008C71.688 34.728 71.016 35.288 70.152 35.688C69.288 36.088 68.28 36.288 67.128 36.288ZM74.2601 32.784L83.7401 19.2H85.4441V36H82.5401V31.776L82.7081 31.512V24.264L78.4121 30.552H84.2441L84.6521 30.336H88.0841V32.784H74.2601ZM89.6419 21.864V19.2H102.17L94.1059 36H91.0819L97.9699 21.864H89.6419ZM102.378 31.464V29.136H107.298V31.464H102.378ZM113.702 27.768V26.256C114.214 26.256 114.67 26.192 115.07 26.064C115.47 25.92 115.806 25.728 116.078 25.488C116.366 25.248 116.582 24.968 116.726 24.648C116.886 24.312 116.966 23.968 116.966 23.616C116.966 23.168 116.878 22.776 116.702 22.44C116.526 22.088 116.27 21.816 115.934 21.624C115.598 21.432 115.182 21.336 114.686 21.336C113.95 21.336 113.334 21.56 112.838 22.008C112.358 22.44 112.118 22.992 112.118 23.664H109.454C109.454 22.736 109.67 21.92 110.102 21.216C110.55 20.512 111.166 19.96 111.95 19.56C112.734 19.144 113.638 18.936 114.662 18.936C115.75 18.936 116.678 19.144 117.446 19.56C118.214 19.976 118.798 20.528 119.198 21.216C119.614 21.888 119.822 22.64 119.822 23.472C119.822 24.32 119.558 25.072 119.03 25.728C118.502 26.384 117.774 26.888 116.846 27.24C115.934 27.592 114.886 27.768 113.702 27.768ZM114.542 36.288C113.646 36.288 112.838 36.16 112.118 35.904C111.398 35.632 110.79 35.264 110.294 34.8C109.798 34.32 109.414 33.776 109.142 33.168C108.87 32.544 108.734 31.888 108.734 31.2H111.566C111.566 31.744 111.694 32.216 111.95 32.616C112.222 33 112.59 33.304 113.054 33.528C113.518 33.736 114.03 33.84 114.59 33.84C115.166 33.84 115.662 33.736 116.078 33.528C116.51 33.32 116.846 33.024 117.086 32.64C117.326 32.24 117.446 31.76 117.446 31.2C117.446 30.752 117.358 30.352 117.182 30C117.006 29.648 116.75 29.352 116.414 29.112C116.094 28.872 115.702 28.688 115.238 28.56C114.774 28.432 114.262 28.368 113.702 28.368V26.76C114.63 26.76 115.494 26.856 116.294 27.048C117.094 27.224 117.79 27.504 118.382 27.888C118.99 28.256 119.462 28.744 119.798 29.352C120.134 29.944 120.302 30.664 120.302 31.512C120.302 32.456 120.062 33.288 119.582 34.008C119.102 34.728 118.43 35.288 117.566 35.688C116.702 36.088 115.694 36.288 114.542 36.288ZM123.138 23.256C123.138 22.392 123.362 21.64 123.81 21C124.258 20.344 124.858 19.832 125.61 19.464C126.378 19.096 127.234 18.912 128.178 18.912C129.122 18.912 129.97 19.096 130.722 19.464C131.49 19.832 132.098 20.344 132.546 21C133.01 21.64 133.242 22.392 133.242 23.256C133.242 23.96 133.106 24.584 132.834 25.128C132.562 25.656 132.194 26.104 131.73 26.472C131.266 26.84 130.73 27.12 130.122 27.312C129.514 27.504 128.866 27.6 128.178 27.6C127.49 27.6 126.842 27.504 126.234 27.312C125.626 27.12 125.09 26.84 124.626 26.472C124.162 26.104 123.794 25.656 123.522 25.128C123.266 24.584 123.138 23.96 123.138 23.256ZM125.826 23.544C125.826 24.024 125.93 24.44 126.138 24.792C126.362 25.144 126.65 25.424 127.002 25.632C127.354 25.824 127.746 25.92 128.178 25.92C128.61 25.92 129.002 25.824 129.354 25.632C129.722 25.424 130.01 25.144 130.218 24.792C130.426 24.44 130.53 24.024 130.53 23.544C130.53 23.08 130.426 22.664 130.218 22.296C130.026 21.928 129.754 21.648 129.402 21.456C129.05 21.248 128.642 21.144 128.178 21.144C127.73 21.144 127.322 21.248 126.954 21.456C126.602 21.648 126.322 21.928 126.114 22.296C125.922 22.664 125.826 23.08 125.826 23.544ZM122.538 31.44C122.538 30.624 122.698 29.912 123.018 29.304C123.338 28.696 123.77 28.192 124.314 27.792C124.858 27.376 125.466 27.072 126.138 26.88C126.81 26.688 127.49 26.592 128.178 26.592C128.866 26.592 129.546 26.688 130.218 26.88C130.89 27.072 131.498 27.376 132.042 27.792C132.586 28.192 133.018 28.696 133.338 29.304C133.674 29.912 133.842 30.624 133.842 31.44C133.842 32.144 133.69 32.792 133.386 33.384C133.098 33.96 132.69 34.472 132.162 34.92C131.65 35.352 131.05 35.688 130.362 35.928C129.69 36.168 128.962 36.288 128.178 36.288C127.394 36.288 126.658 36.168 125.97 35.928C125.298 35.688 124.698 35.352 124.17 34.92C123.658 34.472 123.258 33.96 122.97 33.384C122.682 32.792 122.538 32.144 122.538 31.44ZM125.322 31.056C125.322 31.664 125.45 32.184 125.706 32.616C125.978 33.032 126.33 33.352 126.762 33.576C127.21 33.8 127.682 33.912 128.178 33.912C128.674 33.912 129.138 33.8 129.57 33.576C130.018 33.352 130.378 33.032 130.65 32.616C130.922 32.184 131.058 31.664 131.058 31.056C131.058 30.528 130.922 30.048 130.65 29.616C130.378 29.184 130.018 28.848 129.57 28.608C129.138 28.352 128.674 28.224 128.178 28.224C127.682 28.224 127.21 28.352 126.762 28.608C126.33 28.848 125.978 29.184 125.706 29.616C125.45 30.048 125.322 30.528 125.322 31.056ZM148.461 30.528C148.461 31.504 148.293 32.352 147.957 33.072C147.621 33.792 147.157 34.392 146.565 34.872C145.973 35.336 145.301 35.688 144.549 35.928C143.813 36.152 143.037 36.264 142.221 36.264C141.197 36.264 140.293 36.128 139.509 35.856C138.725 35.584 138.045 35.224 137.469 34.776C136.893 34.312 136.389 33.816 135.957 33.288L137.613 31.248C137.949 31.68 138.341 32.08 138.789 32.448C139.253 32.8 139.749 33.088 140.277 33.312C140.805 33.52 141.333 33.624 141.861 33.624C142.629 33.624 143.277 33.496 143.805 33.24C144.333 32.984 144.733 32.608 145.005 32.112C145.293 31.616 145.437 31.032 145.437 30.36C145.437 29.672 145.277 29.088 144.957 28.608C144.637 28.128 144.205 27.76 143.661 27.504C143.117 27.248 142.517 27.12 141.861 27.12C141.381 27.12 140.901 27.16 140.421 27.24C139.957 27.304 139.477 27.432 138.981 27.624C138.501 27.816 137.973 28.088 137.397 28.44L139.677 19.2H148.293V21.696H141.813L140.757 25.536C141.173 25.328 141.605 25.176 142.053 25.08C142.501 24.984 142.957 24.936 143.421 24.936C144.349 24.936 145.197 25.168 145.965 25.632C146.733 26.096 147.341 26.744 147.789 27.576C148.237 28.408 148.461 29.392 148.461 30.528ZM149.534 31.464V29.136H154.454V31.464H149.534ZM158.53 30.336C158.53 31.024 158.674 31.632 158.962 32.16C159.266 32.672 159.674 33.08 160.186 33.384C160.698 33.672 161.282 33.816 161.938 33.816C162.578 33.816 163.154 33.672 163.666 33.384C164.178 33.08 164.578 32.672 164.866 32.16C165.17 31.632 165.322 31.024 165.322 30.336C165.322 29.648 165.17 29.04 164.866 28.512C164.578 27.968 164.178 27.552 163.666 27.264C163.154 26.96 162.578 26.808 161.938 26.808C161.282 26.808 160.698 26.96 160.186 27.264C159.674 27.552 159.266 27.968 158.962 28.512C158.674 29.04 158.53 29.648 158.53 30.336ZM162.514 19.224H166.114L160.786 25.824L160.378 25.896C160.746 25.48 161.138 25.208 161.554 25.08C161.97 24.952 162.466 24.888 163.042 24.888C163.698 24.888 164.33 25.016 164.938 25.272C165.546 25.528 166.082 25.904 166.546 26.4C167.026 26.88 167.402 27.456 167.674 28.128C167.946 28.8 168.082 29.536 168.082 30.336C168.082 31.568 167.81 32.632 167.266 33.528C166.722 34.424 165.986 35.112 165.058 35.592C164.13 36.056 163.09 36.288 161.938 36.288C160.786 36.288 159.746 36.056 158.818 35.592C157.89 35.112 157.146 34.424 156.586 33.528C156.042 32.632 155.77 31.568 155.77 30.336C155.77 29.552 155.898 28.832 156.154 28.176C156.426 27.52 156.77 26.92 157.186 26.376L162.514 19.224ZM173.249 30.336C173.249 31.024 173.393 31.632 173.681 32.16C173.985 32.672 174.393 33.08 174.905 33.384C175.417 33.672 176.001 33.816 176.657 33.816C177.297 33.816 177.873 33.672 178.385 33.384C178.897 33.08 179.297 32.672 179.585 32.16C179.889 31.632 180.041 31.024 180.041 30.336C180.041 29.648 179.889 29.04 179.585 28.512C179.297 27.968 178.897 27.552 178.385 27.264C177.873 26.96 177.297 26.808 176.657 26.808C176.001 26.808 175.417 26.96 174.905 27.264C174.393 27.552 173.985 27.968 173.681 28.512C173.393 29.04 173.249 29.648 173.249 30.336ZM177.233 19.224H180.833L175.505 25.824L175.097 25.896C175.465 25.48 175.857 25.208 176.273 25.08C176.689 24.952 177.185 24.888 177.761 24.888C178.417 24.888 179.049 25.016 179.657 25.272C180.265 25.528 180.801 25.904 181.265 26.4C181.745 26.88 182.121 27.456 182.393 28.128C182.665 28.8 182.801 29.536 182.801 30.336C182.801 31.568 182.529 32.632 181.985 33.528C181.441 34.424 180.705 35.112 179.777 35.592C178.849 36.056 177.809 36.288 176.657 36.288C175.505 36.288 174.465 36.056 173.537 35.592C172.609 35.112 171.865 34.424 171.305 33.528C170.761 32.632 170.489 31.568 170.489 30.336C170.489 29.552 170.617 28.832 170.873 28.176C171.145 27.52 171.489 26.92 171.905 26.376L177.233 19.224ZM184.44 32.784L193.92 19.2H195.624V36H192.72V31.776L192.888 31.512V24.264L188.592 30.552H194.424L194.832 30.336H198.264V32.784H184.44ZM199.822 21.864V19.2H212.35L204.286 36H201.262L208.15 21.864H199.822Z" fill="white"/>
</svg>
