<svg width="100" height="16" viewBox="0 0 100 16" fill="none" xmlns="http://www.w3.org/2000/svg">
<path d="M11.9456 9.54675C11.7729 9.71408 11.6936 9.95608 11.7329 10.1934L12.3256 13.4734C12.3756 13.7514 12.2583 14.0327 12.0256 14.1934C11.7976 14.3601 11.4943 14.3801 11.2456 14.2467L8.29292 12.7067C8.19026 12.6521 8.07626 12.6227 7.95959 12.6194H7.77892C7.71626 12.6287 7.65493 12.6487 7.59893 12.6794L4.64559 14.2267C4.49959 14.3001 4.33426 14.3261 4.17226 14.3001C3.77759 14.2254 3.51426 13.8494 3.57893 13.4527L4.17226 10.1727C4.21159 9.93341 4.13226 9.69008 3.95959 9.52008L1.55226 7.18675C1.35093 6.99141 1.28093 6.69808 1.37293 6.43341C1.46226 6.16941 1.69026 5.97675 1.96559 5.93341L5.27892 5.45275C5.53093 5.42675 5.75226 5.27341 5.86559 5.04675L7.32559 2.05341C7.36026 1.98675 7.40493 1.92541 7.45893 1.87341L7.51892 1.82675C7.55026 1.79208 7.58626 1.76341 7.62626 1.74008L7.69893 1.71341L7.81226 1.66675H8.09293C8.34359 1.69275 8.56426 1.84275 8.67959 2.06675L10.1589 5.04675C10.2656 5.26475 10.4729 5.41608 10.7123 5.45275L14.0256 5.93341C14.3056 5.97341 14.5396 6.16675 14.6323 6.43341C14.7196 6.70075 14.6443 6.99408 14.4389 7.18675L11.9456 9.54675Z" fill="#EDB93B"/>
<path d="M32.9456 9.54675C32.7729 9.71408 32.6936 9.95608 32.7329 10.1934L33.3256 13.4734C33.3756 13.7514 33.2583 14.0327 33.0256 14.1934C32.7976 14.3601 32.4943 14.3801 32.2456 14.2467L29.2929 12.7067C29.1903 12.6521 29.0763 12.6227 28.9596 12.6194H28.7789C28.7163 12.6287 28.6549 12.6487 28.5989 12.6794L25.6456 14.2267C25.4996 14.3001 25.3343 14.3261 25.1723 14.3001C24.7776 14.2254 24.5143 13.8494 24.5789 13.4527L25.1723 10.1727C25.2116 9.93341 25.1323 9.69008 24.9596 9.52008L22.5523 7.18675C22.3509 6.99141 22.2809 6.69808 22.3729 6.43341C22.4623 6.16941 22.6903 5.97675 22.9656 5.93341L26.2789 5.45275C26.5309 5.42675 26.7523 5.27341 26.8656 5.04675L28.3256 2.05341C28.3603 1.98675 28.4049 1.92541 28.4589 1.87341L28.5189 1.82675C28.5503 1.79208 28.5863 1.76341 28.6263 1.74008L28.6989 1.71341L28.8123 1.66675H29.0929C29.3436 1.69275 29.5643 1.84275 29.6796 2.06675L31.1589 5.04675C31.2656 5.26475 31.4729 5.41608 31.7123 5.45275L35.0256 5.93341C35.3056 5.97341 35.5396 6.16675 35.6323 6.43341C35.7196 6.70075 35.6443 6.99408 35.4389 7.18675L32.9456 9.54675Z" fill="#EDB93B"/>
<path d="M53.9456 9.54675C53.7729 9.71408 53.6936 9.95608 53.7329 10.1934L54.3256 13.4734C54.3756 13.7514 54.2583 14.0327 54.0256 14.1934C53.7976 14.3601 53.4943 14.3801 53.2456 14.2467L50.2929 12.7067C50.1903 12.6521 50.0763 12.6227 49.9596 12.6194H49.7789C49.7163 12.6287 49.6549 12.6487 49.5989 12.6794L46.6456 14.2267C46.4996 14.3001 46.3343 14.3261 46.1723 14.3001C45.7776 14.2254 45.5143 13.8494 45.5789 13.4527L46.1723 10.1727C46.2116 9.93341 46.1323 9.69008 45.9596 9.52008L43.5523 7.18675C43.3509 6.99141 43.2809 6.69808 43.3729 6.43341C43.4623 6.16941 43.6903 5.97675 43.9656 5.93341L47.2789 5.45275C47.5309 5.42675 47.7523 5.27341 47.8656 5.04675L49.3256 2.05341C49.3603 1.98675 49.4049 1.92541 49.4589 1.87341L49.5189 1.82675C49.5503 1.79208 49.5863 1.76341 49.6263 1.74008L49.6989 1.71341L49.8123 1.66675H50.0929C50.3436 1.69275 50.5643 1.84275 50.6796 2.06675L52.1589 5.04675C52.2656 5.26475 52.4729 5.41608 52.7123 5.45275L56.0256 5.93341C56.3056 5.97341 56.5396 6.16675 56.6323 6.43341C56.7196 6.70075 56.6443 6.99408 56.4389 7.18675L53.9456 9.54675Z" fill="#EDB93B"/>
<path d="M74.9456 9.54675C74.7729 9.71408 74.6936 9.95608 74.7329 10.1934L75.3256 13.4734C75.3756 13.7514 75.2583 14.0327 75.0256 14.1934C74.7976 14.3601 74.4943 14.3801 74.2456 14.2467L71.2929 12.7067C71.1903 12.6521 71.0763 12.6227 70.9596 12.6194H70.7789C70.7163 12.6287 70.6549 12.6487 70.5989 12.6794L67.6456 14.2267C67.4996 14.3001 67.3343 14.3261 67.1723 14.3001C66.7776 14.2254 66.5143 13.8494 66.5789 13.4527L67.1723 10.1727C67.2116 9.93341 67.1323 9.69008 66.9596 9.52008L64.5523 7.18675C64.3509 6.99141 64.2809 6.69808 64.3729 6.43341C64.4623 6.16941 64.6903 5.97675 64.9656 5.93341L68.2789 5.45275C68.5309 5.42675 68.7523 5.27341 68.8656 5.04675L70.3256 2.05341C70.3603 1.98675 70.4049 1.92541 70.4589 1.87341L70.5189 1.82675C70.5503 1.79208 70.5863 1.76341 70.6263 1.74008L70.6989 1.71341L70.8123 1.66675H71.0929C71.3436 1.69275 71.5643 1.84275 71.6796 2.06675L73.1589 5.04675C73.2656 5.26475 73.4729 5.41608 73.7123 5.45275L77.0256 5.93341C77.3056 5.97341 77.5396 6.16675 77.6323 6.43341C77.7196 6.70075 77.6443 6.99408 77.4389 7.18675L74.9456 9.54675Z" fill="#EDB93B"/>
<path d="M95.9456 9.54675C95.7729 9.71408 95.6936 9.95608 95.7329 10.1934L96.3256 13.4734C96.3756 13.7514 96.2583 14.0327 96.0256 14.1934C95.7976 14.3601 95.4943 14.3801 95.2456 14.2467L92.2929 12.7067C92.1903 12.6521 92.0763 12.6227 91.9596 12.6194H91.7789C91.7163 12.6287 91.6549 12.6487 91.5989 12.6794L88.6456 14.2267C88.4996 14.3001 88.3343 14.3261 88.1723 14.3001C87.7776 14.2254 87.5143 13.8494 87.5789 13.4527L88.1723 10.1727C88.2116 9.93341 88.1323 9.69008 87.9596 9.52008L85.5523 7.18675C85.3509 6.99141 85.2809 6.69808 85.3729 6.43341C85.4623 6.16941 85.6903 5.97675 85.9656 5.93341L89.2789 5.45275C89.5309 5.42675 89.7523 5.27341 89.8656 5.04675L91.3256 2.05341C91.3603 1.98675 91.4049 1.92541 91.4589 1.87341L91.5189 1.82675C91.5503 1.79208 91.5863 1.76341 91.6263 1.74008L91.6989 1.71341L91.8123 1.66675H92.0929C92.3436 1.69275 92.5643 1.84275 92.6796 2.06675L94.1589 5.04675C94.2656 5.26475 94.4729 5.41608 94.7123 5.45275L98.0256 5.93341C98.3056 5.97341 98.5396 6.16675 98.6323 6.43341C98.7196 6.70075 98.6443 6.99408 98.4389 7.18675L95.9456 9.54675Z" fill="#EDB93B"/>
</svg>
