<svg width="60" height="60" viewBox="0 0 60 60" fill="none" xmlns="http://www.w3.org/2000/svg">
<g clip-path="url(#clip0_1_313)">
<path d="M41.3979 50.1903C34.3414 55.4884 24.5657 55.2298 17.7992 49.566C11.0327 43.9023 9.05719 34.3247 13.0304 26.4457C13.2044 26.1254 13.1903 25.7358 12.9936 25.4289C12.7969 25.122 12.4488 24.9464 12.0851 24.9707C11.7214 24.9951 11.3998 25.2155 11.2457 25.5458C9.76276 28.4736 8.99462 31.711 9.00412 34.9929C9.00412 42.9456 13.4973 50.2157 20.6104 53.7723C27.7235 57.3288 36.2355 56.5613 42.5977 51.7897C42.8834 51.5754 43.0332 51.2249 42.9904 50.8703C42.9477 50.5157 42.7191 50.2108 42.3905 50.0704C42.0621 49.9304 41.6837 49.976 41.3979 50.1903Z" fill="#ED8C0C"/>
<path d="M30.0001 13.9974C25.4552 13.9846 21.0309 15.4594 17.4025 18.1966C16.9608 18.5279 16.8713 19.1545 17.2025 19.5964C17.5338 20.0382 18.1605 20.1276 18.6023 19.7964C25.6688 14.5046 35.4492 14.7769 42.2104 20.4537C48.9715 26.1304 50.9321 35.7162 46.9429 43.5918C46.7792 43.9105 46.7985 44.2923 46.9936 44.5928C47.1886 44.8934 47.5295 45.0665 47.8872 45.0468C48.2449 45.0272 48.5648 44.8177 48.7257 44.4976C50.2267 41.5549 51.005 38.2968 50.9962 34.9934C50.9834 23.4028 41.5907 14.0101 30.0001 13.9974Z" fill="#ED8C0C"/>
<path d="M42.3858 28.0947L36.278 27.1719C35.9298 27.1115 35.6343 26.8823 35.4891 26.5601L32.7356 20.7613C32.2514 19.6846 31.1806 18.9922 30.0002 18.9922C28.8196 18.9922 27.749 19.6846 27.2647 20.7613L24.5112 26.5601C24.366 26.8823 24.0706 27.1116 23.7223 27.1719L17.6145 28.0947C16.4685 28.2758 15.523 29.0885 15.172 30.1943C14.7797 31.3455 15.0703 32.6194 15.9229 33.4867L20.3021 37.9269C20.5752 38.2095 20.6967 38.6056 20.6289 38.9927L19.5891 45.2915C19.3763 46.4995 19.8765 47.7224 20.8749 48.435C21.799 49.0974 23.0216 49.1698 24.0172 48.6209L29.5362 45.6045C29.8245 45.4435 30.1757 45.4435 30.464 45.6045L35.983 48.6209C36.9785 49.1705 38.2016 49.0981 39.1253 48.435C40.1237 47.7224 40.6239 46.4995 40.4111 45.2915L39.3713 38.9927C39.3035 38.6064 39.4239 38.2111 39.6952 37.9279L44.0774 33.4877C44.93 32.62 45.2205 31.3458 44.8283 30.1943C44.4773 29.0885 43.5318 28.2758 42.3858 28.0947ZM42.6538 32.0789L38.2726 36.5191C37.5504 37.2588 37.2253 38.2992 37.3977 39.3186L38.4376 45.6174C38.5224 46.0704 38.3402 46.5322 37.9687 46.8052C37.6685 47.0264 37.2664 47.0508 36.9418 46.8672L31.4229 43.8507C30.5368 43.364 29.4635 43.364 28.5774 43.8507L23.0585 46.8672C22.7341 47.0512 22.3316 47.027 22.0316 46.8052C21.6601 46.5322 21.4778 46.0706 21.5628 45.6174L22.6026 39.3186C22.7735 38.3013 22.449 37.2636 21.7288 36.5251L17.3466 32.0829C17.025 31.7496 16.9179 31.2638 17.0696 30.8262C17.1848 30.4357 17.5121 30.1448 17.9134 30.0764L24.0212 29.1536C25.0286 28.9961 25.8911 28.3465 26.3208 27.4219L29.0743 21.623C29.2297 21.2464 29.5968 21.0007 30.0041 21.0007C30.4115 21.0007 30.7786 21.2464 30.934 21.623L33.6875 27.4219C34.1171 28.3465 34.9797 28.996 35.9871 29.1536L42.0949 30.0764C42.4962 30.1448 42.8235 30.4357 42.9387 30.8262C43.087 31.2648 42.977 31.7495 42.6538 32.0809V32.0789Z" fill="#ED8C0C"/>
<path d="M31 6.99862V0.99977C31 0.447571 30.5523 0 30.0003 0C29.4481 0 29.0005 0.447688 29.0005 0.99977V6.99862C29.0005 7.55082 29.4482 7.99839 30.0003 7.99839C30.5523 7.99851 31 7.55082 31 6.99862Z" fill="#ED8C0C"/>
<path d="M37.9987 7.99851V0.99977C37.9987 0.447571 37.5511 0 36.9989 0C36.4467 0 35.9991 0.447688 35.9991 0.99977V7.99839C35.9991 8.55059 36.4467 8.99816 36.9989 8.99816C37.5511 8.99816 37.9987 8.55071 37.9987 7.99851Z" fill="#ED8C0C"/>
<path d="M42.9977 10.9979C42.9977 11.5501 43.4453 11.9976 43.9974 11.9976C44.5496 11.9976 44.9972 11.5499 44.9972 10.9979V6.99855C44.9972 6.44635 44.5496 5.99878 43.9974 5.99878C43.4453 5.99878 42.9977 6.44647 42.9977 6.99855V10.9979Z" fill="#ED8C0C"/>
<path d="M43.9974 3.9992C44.5496 3.9992 44.9972 3.55151 44.9972 2.99943V0.99977C44.9972 0.447571 44.5496 0 43.9974 0C43.4453 0 42.9977 0.447688 42.9977 0.99977V2.99943C42.9977 3.55162 43.4453 3.9992 43.9974 3.9992Z" fill="#ED8C0C"/>
<path d="M51.996 5.99879C51.996 5.44659 51.5484 4.99902 50.9962 4.99902C50.444 4.99902 49.9965 5.44671 49.9965 5.99879V20.0131C45.282 13.7098 37.8715 9.99834 30.0001 9.99834C22.1288 9.99834 14.7183 13.7098 10.0039 20.0131V5.99879C10.0039 5.44659 9.55624 4.99902 9.00416 4.99902C8.45207 4.99902 8.00439 5.44671 8.00439 5.99879V23.1315C3.05428 32.3026 4.31416 43.5827 11.1655 51.4358C18.0168 59.2889 29.0218 62.0669 38.7795 58.4063C48.5373 54.7457 54.9998 45.415 54.9954 34.9933C55.0001 30.8511 53.9689 26.7736 51.996 23.1316V5.99879ZM30.0001 57.9888C17.3 57.9888 7.0045 47.6933 7.0045 34.9932C7.0045 22.2931 17.3 11.9976 30.0001 11.9976C42.7002 11.9976 52.9958 22.2932 52.9958 34.9933C52.9815 47.6874 42.6944 57.9745 30.0001 57.9888Z" fill="#ED8C0C"/>
<path d="M24.0012 7.99851V0.99977C24.0012 0.447571 23.5536 0 23.0015 0C22.4493 0 22.0017 0.447688 22.0017 0.99977V7.99839C22.0017 8.55059 22.4494 8.99816 23.0015 8.99816C23.5537 8.99828 24.0012 8.55071 24.0012 7.99851Z" fill="#ED8C0C"/>
<path d="M15.0031 10.9979C15.0031 11.5501 15.4507 11.9976 16.0028 11.9976C16.555 11.9976 17.0026 11.5499 17.0026 10.9979V6.99855C17.0026 6.44635 16.5549 5.99878 16.0028 5.99878C15.4506 5.99878 15.0031 6.44647 15.0031 6.99855V10.9979Z" fill="#ED8C0C"/>
<path d="M16.0029 3.9992C16.5551 3.9992 17.0027 3.55151 17.0027 2.99943V0.99977C17.0027 0.447571 16.555 0 16.0029 0C15.4507 0 15.0032 0.447688 15.0032 0.99977V2.99943C15.0031 3.55162 15.4507 3.9992 16.0029 3.9992Z" fill="#ED8C0C"/>
</g>
<defs>
<clipPath id="clip0_1_313">
<rect width="60" height="60" fill="white"/>
</clipPath>
</defs>
</svg>
