<svg width="40" height="40" viewBox="0 0 40 40" fill="none" xmlns="http://www.w3.org/2000/svg">
<circle opacity="0.5" cx="20" cy="20" r="19.5" stroke="white"/>
<path d="M29.6004 14.0429C28.8943 14.3558 28.1358 14.5672 27.3384 14.6627C28.1519 14.1757 28.7759 13.4028 29.0702 12.4828C28.3092 12.9344 27.4661 13.2624 26.569 13.4383C25.8502 12.6739 24.827 12.1953 23.6939 12.1953C21.5191 12.1953 19.7552 13.9592 19.7552 16.1358C19.7553 16.4374 19.7893 16.7381 19.8566 17.0321C16.5817 16.8672 13.6804 15.2986 11.7373 12.9157C11.3991 13.4992 11.2045 14.1757 11.2045 14.8961C11.2045 16.2626 11.9005 17.4693 12.9566 18.1754C12.3311 18.1554 11.7194 17.9864 11.1724 17.6824V17.7331C11.1724 19.6416 12.5296 21.2339 14.3324 21.5958C13.9941 21.6871 13.6452 21.7331 13.2949 21.7328C13.046 21.733 12.7978 21.7098 12.5533 21.6634C13.0547 23.2278 14.5091 24.3676 16.2333 24.3981C14.8846 25.4551 13.1858 26.085 11.3407 26.085C11.0228 26.085 10.709 26.0664 10.4004 26.03C12.144 27.1488 14.214 27.7999 16.4379 27.7999C23.6846 27.7999 27.6462 21.7978 27.6462 16.5924C27.6462 16.4233 27.642 16.2525 27.6344 16.0834C28.4039 15.5269 29.0719 14.8344 29.5987 14.0455L29.6004 14.0429Z" fill="white"/>
</svg>
